<svg width="24" height="24" viewBox="0 0 24 24" fill="none" xmlns="http://www.w3.org/2000/svg">
<path fill-rule="evenodd" clip-rule="evenodd" d="M19.1533 2.45679C18.0985 1.9104 16.8004 2.32261 16.254 3.37747L13.8676 7.98472C13.8548 8.00942 13.8438 8.03458 13.8345 8.06002C12.6655 8.01993 11.5076 8.5363 10.7267 9.45028C9.80654 10.5271 8.67454 11.7023 7.70721 12.3023C6.3281 13.1579 5.18798 13.4662 4.47996 13.5756C4.06587 13.6396 3.72977 13.9062 3.56605 14.252C3.39503 14.6131 3.40792 15.0863 3.74026 15.4525C4.46273 16.2486 5.87131 17.5527 8.4549 19.1959C10.2444 20.334 11.8487 20.9634 12.7122 21.255C13.3739 21.4786 14.0811 21.2229 14.4608 20.6543C14.9408 19.9353 15.7839 18.5795 16.5077 16.9297C17.0433 15.7092 17.5046 14.4513 17.9461 13.1955C18.3186 12.1362 18.151 11.0187 17.5848 10.1355L20.0718 5.36041C20.6214 4.3051 20.2099 3.00403 19.1533 2.45679ZM16.6468 9.15108L18.9307 4.76608C19.1516 4.342 18.9862 3.81914 18.5616 3.59923C18.1377 3.37967 17.616 3.54532 17.3965 3.96923L15.1294 8.34596C15.2054 8.37818 15.2807 8.41316 15.3553 8.45102L16.1837 8.87102C16.3468 8.95373 16.5014 9.04753 16.6468 9.15108ZM16.7323 12.7688C16.6407 13.0295 16.5441 13.3006 16.4439 13.5768L11.2229 10.8369C11.391 10.6495 11.5522 10.4647 11.7048 10.2861C12.4819 9.37663 13.7574 9.08336 14.7735 9.59854L15.6019 10.0186C16.6225 10.536 17.1051 11.7086 16.7323 12.7688ZM8.38545 13.3956C9.02028 13.0018 9.68273 12.4263 10.3043 11.8078L10.3127 11.8123L15.9906 14.7919C15.7722 15.3598 15.5478 15.9155 15.3296 16.4128C14.646 17.9706 13.8459 19.2582 13.3908 19.9398C13.3259 20.037 13.2206 20.0688 13.1238 20.0361C12.7441 19.9079 12.2016 19.7061 11.5549 19.4134C11.8551 19.0969 12.2904 18.5796 12.7077 17.8687C12.888 17.5615 12.7838 17.1716 12.4749 16.9977C12.1661 16.8239 11.7696 16.932 11.5893 17.2392C11.2539 17.8105 10.8443 18.3733 10.342 18.8123C9.95898 18.6056 9.55744 18.3723 9.14536 18.1103C8.8103 17.8971 8.49652 17.6905 8.2028 17.4907C8.35563 17.3879 8.52321 17.2619 8.70311 17.1076C8.9737 16.8756 9.00057 16.4745 8.76314 16.2117C8.52571 15.949 8.11393 15.9241 7.84337 16.1561C7.44514 16.4976 7.16704 16.6276 7.05493 16.6714C6.03055 15.9017 5.34423 15.2698 4.90005 14.809C5.76059 14.649 6.97618 14.2699 8.38545 13.3956Z" fill="#646464"/>
</svg>
